<svg width="98" height="98" viewBox="0 0 98 98" fill="none" xmlns="http://www.w3.org/2000/svg">
<rect width="98" height="98" fill="#1E1E1E"/>
<path d="M72.7394 47.5586H59.8365C59.8082 47.5586 59.7805 47.5505 59.7566 47.5352C59.7328 47.5199 59.7138 47.4981 59.7021 47.4724C59.6903 47.4467 59.6862 47.4182 59.6902 47.3902C59.6942 47.3623 59.7062 47.336 59.7248 47.3147L79.1369 24.9633C79.2101 24.8789 79.2575 24.7754 79.2735 24.6649C79.2894 24.5544 79.2731 24.4417 79.2266 24.3402C79.1801 24.2387 79.1053 24.1527 79.0111 24.0924C78.9169 24.0321 78.8073 24 78.6954 24H54.6803C54.3698 24 54.0629 24.0666 53.7804 24.1953C53.4979 24.3239 53.2465 24.5117 53.0432 24.7458L11.1425 72.9907C11.0693 73.0751 11.0218 73.1787 11.0059 73.2891C10.99 73.3996 11.0063 73.5123 11.0528 73.6138C11.0993 73.7153 11.1741 73.8013 11.2683 73.8617C11.3624 73.922 11.472 73.954 11.5839 73.954H35.599C35.9096 73.954 36.2165 73.8874 36.499 73.7588C36.7815 73.6301 37.0329 73.4423 37.2362 73.2083L59.2192 47.8968C59.2389 47.874 59.2651 47.8579 59.2943 47.8504C59.3236 47.843 59.3544 47.8446 59.3826 47.8551C59.4109 47.8656 59.4352 47.8845 59.4524 47.9092C59.4696 47.9339 59.4788 47.9632 59.4788 47.9933V60.7793C59.4788 64.2857 60.8759 67.6484 63.3628 70.1278C65.8496 72.6071 69.2225 74 72.7394 74C76.2563 74 79.6292 72.6071 82.1161 70.1278C84.6029 67.6484 86 64.2857 86 60.7793C86 59.0432 85.657 57.324 84.9906 55.72C84.3242 54.116 83.3475 52.6585 82.1161 51.4309C80.8847 50.2032 79.4229 49.2294 77.8141 48.565C76.2052 47.9006 74.4808 47.5586 72.7394 47.5586Z" fill="white"/>
</svg>
